<svg width="81" height="81" viewBox="0 0 81 81" fill="none" xmlns="http://www.w3.org/2000/svg">
<path d="M40.5 74.6998C59.3881 74.6998 74.6999 59.388 74.6999 40.4999C74.6999 21.6119 59.3881 6.30005 40.5 6.30005C21.6119 6.30005 6.30011 21.6119 6.30011 40.4999C6.30011 59.388 21.6119 74.6998 40.5 74.6998Z" fill="#0066FF"/>
<path d="M40.5 78C61.2107 78 78 61.2107 78 40.5C78 19.7893 61.2107 3 40.5 3C19.7893 3 3 19.7893 3 40.5C3 61.2107 19.7893 78 40.5 78Z" stroke="#0000C9" stroke-width="5.00708" stroke-linecap="round" stroke-linejoin="round" stroke-dasharray="5.01 30.04"/>
<path d="M40.5 74.6998C59.3881 74.6998 74.6999 59.388 74.6999 40.4999C74.6999 21.6119 59.3881 6.30005 40.5 6.30005C21.6119 6.30005 6.30011 21.6119 6.30011 40.4999C6.30011 59.388 21.6119 74.6998 40.5 74.6998Z" fill="url(#paint0_linear)"/>
<path d="M50.6508 24.438L39.8212 30.7287L36.3467 58.2857L51.0494 72.9884C56.7392 71.1414 61.8451 67.8342 65.8572 63.397C69.8694 58.9598 72.6475 53.5479 73.9142 47.7014L50.6508 24.438Z" fill="url(#paint1_linear)"/>
<path d="M46.1028 24.3051C42.9108 24.2918 39.0293 24.464 37.9617 25.3204C35.8713 26.9976 36.3397 30.2281 36.3397 30.2281H36.3467V36.1003L30.3491 36.0699L32.2205 41.7799L36.3467 41.7925V58.2857H43.2561V41.814L47.7667 41.8277L49.3498 36.166L43.2561 36.1352V30.2949L50.6345 30.3665L50.6509 24.4379C50.6509 24.4379 48.5854 24.3155 46.1027 24.3051L46.1028 24.3051Z" fill="white"/>
<defs>
<linearGradient id="paint0_linear" x1="19.0262" y1="14.9098" x2="60.4827" y2="66.9224" gradientUnits="userSpaceOnUse">
<stop stop-color="#0047B2"/>
<stop offset="1" stop-color="#0066FF" stop-opacity="0"/>
</linearGradient>
<linearGradient id="paint1_linear" x1="39.8212" y1="30.7287" x2="59.1214" y2="52.5132" gradientUnits="userSpaceOnUse">
<stop stop-opacity="0.527778"/>
<stop offset="1" stop-opacity="0"/>
</linearGradient>
</defs>
</svg>
