<svg width="81" height="81" viewBox="0 0 81 81" fill="none" xmlns="http://www.w3.org/2000/svg">
<path d="M40.7373 75.0533C59.0512 75.0533 73.8976 59.7242 73.8976 40.8147C73.8976 21.9053 59.0512 6.57617 40.7373 6.57617C22.4235 6.57617 7.57715 21.9053 7.57715 40.8147C7.57715 59.7242 22.4235 75.0533 40.7373 75.0533Z" fill="#FF00FF"/>
<path d="M40.5 78C61.2107 78 78 61.2107 78 40.5C78 19.7893 61.2107 3 40.5 3C19.7893 3 3 19.7893 3 40.5C3 61.2107 19.7893 78 40.5 78Z" stroke="#DC6DE4" stroke-width="5.49057" stroke-linecap="round" stroke-linejoin="round" stroke-dasharray="5.49 32.94"/>
<path d="M40.7373 75.0533C59.0512 75.0533 73.8976 59.7242 73.8976 40.8147C73.8976 21.9053 59.0512 6.57617 40.7373 6.57617C22.4235 6.57617 7.57715 21.9053 7.57715 40.8147C7.57715 59.7242 22.4235 75.0533 40.7373 75.0533Z" fill="url(#paint0_linear)"/>
<path d="M40.7373 75.0533C59.0512 75.0533 73.8976 59.7242 73.8976 40.8147C73.8976 21.9053 59.0512 6.57617 40.7373 6.57617C22.4235 6.57617 7.57715 21.9053 7.57715 40.8147C7.57715 59.7242 22.4235 75.0533 40.7373 75.0533Z" fill="url(#paint1_linear)"/>
<path d="M55.35 26.9111L56.2331 31.1137L56.7685 41.8608L57.0133 50.7176L55.3337 56.0355L49.6949 57.526L39.2554 58.0153L26.2324 56.5916L44.438 74.7976C51.8087 73.9363 58.6868 70.5482 63.9728 65.1749C69.2588 59.8017 72.6473 52.7536 73.5965 45.1576L55.35 26.9111Z" fill="url(#paint2_linear)"/>
<path d="M49.9655 25.5679H31.3752C27.6357 25.5679 24.6042 28.5993 24.6042 32.3388V50.9292C24.6042 54.6686 27.6357 57.7001 31.3752 57.7001H49.9655C53.705 57.7001 56.7365 54.6686 56.7365 50.9292V32.3388C56.7365 28.5993 53.705 25.5679 49.9655 25.5679Z" stroke="white" stroke-width="4" stroke-linecap="square" stroke-linejoin="round"/>
<path d="M49.6794 32.514C50.7665 32.514 51.6479 31.6326 51.6479 30.5454C51.6479 29.4583 50.7665 28.5769 49.6794 28.5769C48.5922 28.5769 47.7108 29.4583 47.7108 30.5454C47.7108 31.6326 48.5922 32.514 49.6794 32.514Z" fill="white"/>
<path d="M40.6703 49.9625C45.27 49.9625 48.9987 46.2337 48.9987 41.6341C48.9987 37.0344 45.27 33.3057 40.6703 33.3057C36.0707 33.3057 32.3419 37.0344 32.3419 41.6341C32.3419 46.2337 36.0707 49.9625 40.6703 49.9625Z" stroke="white" stroke-width="4" stroke-linecap="square" stroke-linejoin="round"/>
<defs>
<linearGradient id="paint0_linear" x1="22.4682" y1="12.8532" x2="59.3698" y2="67.635" gradientUnits="userSpaceOnUse">
<stop stop-color="#00009F"/>
<stop offset="0.461635" stop-color="#7500CB" stop-opacity="0.537255"/>
<stop offset="0.768403" stop-color="#F3B5FF" stop-opacity="0.227451"/>
<stop offset="1" stop-color="#FFCC00"/>
</linearGradient>
<linearGradient id="paint1_linear" x1="22.4682" y1="12.8532" x2="59.3698" y2="67.635" gradientUnits="userSpaceOnUse">
<stop stop-color="#00009F"/>
<stop offset="0.320269" stop-color="#7500CB" stop-opacity="0.537255"/>
<stop offset="0.596517" stop-color="#C30077" stop-opacity="0.717647"/>
<stop offset="0.837718" stop-color="#FF0000" stop-opacity="0.933333"/>
<stop offset="1" stop-color="#FFFF00"/>
</linearGradient>
<linearGradient id="paint2_linear" x1="42.9712" y1="41.5339" x2="56.7365" y2="57.7" gradientUnits="userSpaceOnUse">
<stop stop-opacity="0.6"/>
<stop offset="1" stop-opacity="0"/>
</linearGradient>
</defs>
</svg>
