<svg width="81" height="81" viewBox="0 0 81 81" fill="none" xmlns="http://www.w3.org/2000/svg">
<path d="M40.7373 75.0533C59.0512 75.0533 73.8975 59.7242 73.8975 40.8148C73.8975 21.9053 59.0512 6.57617 40.7373 6.57617C22.4235 6.57617 7.57715 21.9053 7.57715 40.8148C7.57715 59.7242 22.4235 75.0533 40.7373 75.0533Z" fill="#FF0000"/>
<path d="M40.5 74.7384C58.8139 74.7384 73.6602 59.4093 73.6602 40.4998C73.6602 21.5904 58.8139 6.26123 40.5 6.26123C22.1861 6.26123 7.33978 21.5904 7.33978 40.4998C7.33978 59.4093 22.1861 74.7384 40.5 74.7384Z" fill="url(#paint0_linear)"/>
<path d="M55.2516 32.2183L26.3438 49.7395L49.91 73.3057C55.3292 71.643 60.2467 68.5773 64.1954 64.3999C68.1442 60.2225 70.9929 55.0721 72.4712 49.4379L55.2516 32.2183Z" fill="url(#paint1_linear)"/>
<path d="M52.5543 31.1255H28.9204C26.798 31.1255 25.0775 32.846 25.0775 34.9684V46.8814C25.0775 49.0038 26.798 50.7243 28.9204 50.7243H52.5543C54.6766 50.7243 56.3972 49.0038 56.3972 46.8814V34.9684C56.3972 32.846 54.6766 31.1255 52.5543 31.1255Z" fill="white"/>
<path d="M35.7538 46.3634L35.7926 35.4912L46.8009 40.956L35.7538 46.3634Z" fill="#FF0000"/>
<path d="M40.5 78C61.2107 78 78 61.2107 78 40.5C78 19.7893 61.2107 3 40.5 3C19.7893 3 3 19.7893 3 40.5C3 61.2107 19.7893 78 40.5 78Z" stroke="#BD0F15" stroke-opacity="0.555556" stroke-width="5.65073" stroke-linecap="round" stroke-linejoin="round" stroke-dasharray="5.65 33.9"/>
<defs>
<linearGradient id="paint0_linear" x1="20.2135" y1="14.368" x2="61.555" y2="66.8237" gradientUnits="userSpaceOnUse">
<stop stop-color="#A10000"/>
<stop offset="1" stop-color="#FF0000" stop-opacity="0"/>
</linearGradient>
<linearGradient id="paint1_linear" x1="41.4209" y1="40.956" x2="63.7901" y2="63.0215" gradientUnits="userSpaceOnUse">
<stop stop-opacity="0.3"/>
<stop offset="1" stop-opacity="0"/>
</linearGradient>
</defs>
</svg>
